<svg xmlns="http://www.w3.org/2000/svg" width="512" height="512" xml:space="preserve"><path fill-rule="evenodd" clip-rule="evenodd" fill="#35465C" d="M352 376.012c0-8.852 7.156-16.008 16-16.008s16 7.156 16 16.008c0 8.82-7.156 16-16 16s-16-7.18-16-16zm20.773 116.664C349.414 501.605 311.977 512 264.008 512c-75.117 0-136-60.879-136-135.988 0-1.812.07-3.5.141-5.188-.031-.93-.141-1.867-.141-2.82v-113.75c0-6.332-3.789-11.66-9.148-14.242H104c-22.102 0-40-17.922-40-40.004V152c0-19.57 14.047-35.805 32.648-39.27 35.164-7.426 61.797-37.957 63.289-74.969 0-.07.109-.016.266.125C161.336 16.773 178.633 0 200 0h48c22.086 0 40.008 17.902 40.008 40.004v56.008c0 8.828 7.156 15.984 15.984 15.984H344c22.094 0 40 17.922 40 40.004v48.008c0 22.082-17.906 40.004-40 40.004h-40.008c-8.828 0-15.984 7.156-15.984 15.984v88.008c0 13.258 10.742 24 23.984 24 8.844 0 16 7.164 16 16.008 0 8.82-7.156 15.984-16 15.984-39.859 0-56.039-29.992-56.039-56.312v-94.848c0-.305.047-.5.047-.824 0-22.101 17.906-40.003 40.008-40.003.555 0 .953-.09 1.453-.125l38.891.09c8.664-.215 15.648-7.25 15.648-15.969v-32c0-8.828-7.164-16.004-16.008-16.004h-39.984C273.906 144 256 126.098 256 104.012V48.008c0-8.848-7.156-16.004-16-16.004h-33.008c-7.805 0-14.312 5.598-15.711 13.008 0 .035-.078 0-.109 0-6.547 64.383-60.438 88.441-84.047 95.973-.016 0-.016.039-.039.039-6.438 2.078-11.086 8.105-11.086 15.23v35.75c0 8.848 7.156 16.004 16 16.004h16.008c14.742 0 31.984 17.902 31.984 40.003v111.993c0 63.383 32.828 120 104.016 120 51.586 0 82.914-12.578 96.312-19.516 4.555-2.812 7.68-7.734 7.68-13.492 0-.109.016-.164.016-.273l.039-14.203c0-.18-.055-.344-.055-.516 0-8.828 7.156-16.008 16-16.008s16 7.18 16 16.008v20c0 18.344-11.266 34.101-27.227 40.672z"/></svg>